HIERARCHY
ROOT joint_Root
{
	OFFSET 0.0 0.0 0.0
	CHANNELS 6 Xposition Yposition Zposition Zrotation Xrotation Yrotation 
	JOINT Hips
	{
		OFFSET 4.5925 91.4895 -427.239
		CHANNELS 6 Xposition Yposition Zposition Zrotation Xrotation Yrotation 
		JOINT Spine
		{
			OFFSET 15.7357 0.0 0.0
			CHANNELS 6 Xposition Yposition Zposition Zrotation Xrotation Yrotation 
			JOINT Chest
			{
				OFFSET 8.98455 -0.406207 0.0
				CHANNELS 6 Xposition Yposition Zposition Zrotation Xrotation Yrotation 
				JOINT Neck
				{
					OFFSET 16.3773 0.0 0.0
					CHANNELS 6 Xposition Yposition Zposition Zrotation Xrotation Yrotation 
					JOINT Head
					{
						OFFSET 6.45672 0.0 0.0
						CHANNELS 6 Xposition Yposition Zposition Zrotation Xrotation Yrotation 
						End Site
						{
							OFFSET 0.0 0.0 0.0
						}
					}
				}
				JOINT Shoulder_L
				{
					OFFSET 12.9942 -0.242716 4.98039
					CHANNELS 6 Xposition Yposition Zposition Zrotation Xrotation Yrotation 
					JOINT UpperArm_L
					{
						OFFSET 5.34809 0.0 0.0
						CHANNELS 6 Xposition Yposition Zposition Zrotation Xrotation Yrotation 
						JOINT LowerArm_L
						{
							OFFSET 24.3286 1.87007e-05 0.0
							CHANNELS 6 Xposition Yposition Zposition Zrotation Xrotation Yrotation 
							JOINT Hand_L
							{
								OFFSET 22.2916 0.0 0.0
								CHANNELS 6 Xposition Yposition Zposition Zrotation Xrotation Yrotation 
								End Site
								{
									OFFSET 0.0 0.0 0.0
								}
							}
						}
					}
				}
				JOINT Shoulder_R
				{
					OFFSET 12.9945 -0.242716 -4.98039
					CHANNELS 6 Xposition Yposition Zposition Zrotation Xrotation Yrotation 
					JOINT UpperArm_R
					{
						OFFSET -5.34813 0.0 0.0
						CHANNELS 6 Xposition Yposition Zposition Zrotation Xrotation Yrotation 
						JOINT LowerArm_R
						{
							OFFSET -24.3289 0.000322201 0.0
							CHANNELS 6 Xposition Yposition Zposition Zrotation Xrotation Yrotation 
							JOINT Hand_R
							{
								OFFSET -22.2915 -0.000108084 0.0
								CHANNELS 6 Xposition Yposition Zposition Zrotation Xrotation Yrotation 
								End Site
								{
									OFFSET 0.0 0.0 0.0
								}
							}
						}
					}
				}
			}
		}
		JOINT UpperLeg_L
		{
			OFFSET -2.19248 -6.46944 0.0
			CHANNELS 6 Xposition Yposition Zposition Zrotation Xrotation Yrotation 
			JOINT LowerLeg_L
			{
				OFFSET 39.0811 0.0 -1.23785e-05
				CHANNELS 6 Xposition Yposition Zposition Zrotation Xrotation Yrotation 
				JOINT Foot_L
				{
					OFFSET 40.9854 0.0 -1.26872e-05
					CHANNELS 6 Xposition Yposition Zposition Zrotation Xrotation Yrotation 
					JOINT Toes_L
					{
						OFFSET 11.7543 0.0 0.0
						CHANNELS 6 Xposition Yposition Zposition Zrotation Xrotation Yrotation 
						End Site
						{
							OFFSET 0.0 0.0 0.0
						}
					}
				}
			}
		}
		JOINT UpperLeg_R
		{
			OFFSET -2.19251 6.46944 0.0
			CHANNELS 6 Xposition Yposition Zposition Zrotation Xrotation Yrotation 
			JOINT LowerLeg_R
			{
				OFFSET -39.0811 -0.00228153 -0.0401928
				CHANNELS 6 Xposition Yposition Zposition Zrotation Xrotation Yrotation 
				JOINT Foot_R
				{
					OFFSET -40.9854 0.0 0.0
					CHANNELS 6 Xposition Yposition Zposition Zrotation Xrotation Yrotation 
					JOINT Toes_R
					{
						OFFSET -11.7543 0.0 0.0
						CHANNELS 6 Xposition Yposition Zposition Zrotation Xrotation Yrotation 
						End Site
						{
							OFFSET 0.0 0.0 0.0
						}
					}
				}
			}
		}
	}
}
MOTION
Frames:	4
Frame Time:	0.0333333
0.000000 0.000000 0.000000 0.000000 0.000000 -0.000000 -3.127440 81.973700 -0.115806 86.622500 -7.313870 8.622910 15.735700 0.000005 -0.000001 84.400100 81.021900 -83.376800 8.984550 -0.406207 -0.000000 10.124100 -1.719880 2.197830 16.377300 -0.000001 -0.000001 0.252329 0.159525 0.622494 6.456720 -0.000001 -0.000000 -5.425190 2.963440 -1.972300 12.994200 -0.242716 4.980390 -90.953100 3.333390 -74.033200 5.348090 -0.000007 -0.000001 -59.819300 35.395500 -18.163900 24.328600 0.000019 0.000005 9.907910 18.348400 -29.024600 22.291600 -0.000001 0.000005 14.992800 5.267650 0.961682 12.994500 -0.242716 -4.980390 88.403000 9.976040 -80.857300 -5.348130 -0.000001 -0.000004 -62.919900 5.748600 -19.572100 -24.328900 0.000322 -0.000009 -3.584010 -15.864000 -12.902700 -22.291500 -0.000108 -0.000004 10.612400 5.255620 1.292880 -2.192480 -6.469440 -0.000000 -169.506000 -13.046100 -16.497000 39.081100 -0.000007 -0.000012 -0.573474 0.290987 63.097500 40.985400 -0.000006 -0.000013 -1.718410 3.704040 -86.639700 11.754300 -0.000000 0.000003 -0.000536 -0.004222 -16.731400 -2.192510 6.469440 -0.000001 -177.575000 11.239900 162.854000 -39.081100 -0.002282 -0.040193 0.081195 -0.040761 62.412600 -40.985400 0.000008 0.000006 9.281060 2.419500 -85.825400 -11.754300 -0.000006 -0.000006 -1.258520 -1.569440 -16.971800
0.000000 0.000000 0.000000 0.000000 0.000000 -0.000000 -3.893480 83.603500 0.560172 86.499000 -5.291260 8.343350 15.735700 0.000005 -0.000001 83.264300 81.905300 -83.353400 8.984550 -0.406207 -0.000000 8.313500 -1.890590 -0.040724 16.377300 -0.000001 -0.000001 0.664657 0.372203 -0.086477 6.456720 -0.000001 -0.000000 -4.616770 2.577360 -1.722980 12.994200 -0.242716 4.980390 -90.910000 3.066190 -73.461600 5.348090 -0.000007 -0.000001 -60.746000 33.474300 -16.416800 24.328600 0.000019 0.000005 8.657100 17.170000 -27.282000 22.291600 -0.000001 0.000005 15.195500 5.254120 1.323540 12.994500 -0.242716 -4.980390 88.554000 8.660770 -80.483600 -5.348130 -0.000001 -0.000004 -60.069600 -3.536500 -20.031100 -24.328900 0.000322 -0.000009 -2.064300 -13.822200 -8.574250 -22.291500 -0.000108 -0.000004 6.883490 5.187530 3.030800 -2.192480 -6.469440 -0.000000 -169.264000 -11.109400 -14.389900 39.081100 -0.000007 -0.000012 -0.525657 0.324953 58.277500 40.985400 -0.000006 -0.000013 -2.281510 4.025760 -84.443900 11.754300 -0.000000 0.000003 -0.000459 -0.003710 -16.713600 -2.192510 6.469440 -0.000001 -177.096000 12.433200 165.577000 -39.081100 -0.002282 -0.040193 0.080479 -0.049155 57.535900 -40.985400 0.000008 0.000006 9.067760 1.938270 -83.708500 -11.754300 -0.000006 -0.000006 -1.396160 -1.738550 -17.196300
0.000000 0.000000 0.000000 0.000000 0.000000 -0.000000 -4.546790 85.786900 1.262940 86.598400 -3.052520 7.912550 15.735700 0.000005 -0.000001 81.701900 82.905400 -83.141200 8.984550 -0.406207 -0.000000 6.253870 -2.023010 -2.764940 16.377300 -0.000001 -0.000001 1.847810 0.396297 -0.776482 6.456720 -0.000001 -0.000000 -3.717180 2.070520 -0.542232 12.994200 -0.242716 4.980390 -90.728300 2.314760 -72.530200 5.348090 -0.000007 -0.000001 -61.074000 32.309400 -15.269700 24.328600 0.000019 0.000005 6.975170 15.524000 -24.566000 22.291600 -0.000001 0.000005 14.326000 5.269320 0.916232 12.994500 -0.242716 -4.980390 88.823800 6.695800 -80.013300 -5.348130 -0.000001 -0.000004 -56.008100 -16.285200 -21.539500 -24.328900 0.000322 -0.000009 -1.382900 -13.929300 -5.722760 -22.291500 -0.000108 -0.000004 7.907480 5.148380 3.979360 -2.192480 -6.469440 -0.000000 -169.330000 -9.540160 -11.399200 39.081100 -0.000007 -0.000012 -0.458834 0.368702 51.217000 40.985400 -0.000006 -0.000013 -2.650940 4.530180 -81.093600 11.754300 -0.000000 0.000003 -0.000343 -0.002911 -16.685500 -2.192510 6.469440 -0.000001 -176.951000 13.847600 169.134000 -39.081100 -0.002282 -0.040193 0.074239 -0.058468 50.526400 -40.985400 0.000008 0.000006 8.760100 1.716830 -80.431300 -11.754300 -0.000006 -0.000006 -1.467370 -1.814720 -17.550900
0.000000 0.000000 0.000000 0.000000 0.000000 -0.000000 -5.067380 87.833000 1.842630 86.737500 -1.469640 7.080630 15.735700 0.000005 -0.000001 80.704600 83.860500 -83.327900 8.984550 -0.406207 -0.000000 4.315580 -1.901280 -5.169420 16.377300 -0.000001 -0.000001 3.086080 0.301948 -1.333680 6.456720 -0.000001 -0.000000 -2.926030 1.764950 0.349757 12.994200 -0.242716 4.980390 -90.589300 1.782060 -71.698600 5.348090 -0.000007 -0.000001 -61.229300 30.158200 -13.991800 24.328600 0.000019 0.000005 6.995880 16.960700 -22.814400 22.291600 -0.000001 0.000005 12.982900 5.254380 1.317050 12.994500 -0.242716 -4.980390 89.174400 4.406100 -79.375900 -5.348130 -0.000001 -0.000004 -50.091500 -28.896000 -26.140600 -24.328900 0.000322 -0.000009 -1.383230 -19.134400 -4.210580 -22.291500 -0.000108 -0.000004 11.995500 5.123910 4.561970 -2.192480 -6.469440 -0.000000 -169.266000 -9.539190 -8.479610 39.081100 -0.000007 -0.000012 -0.363306 0.380444 43.680800 40.985400 -0.000006 -0.000013 -2.696540 5.777890 -77.415200 11.754300 -0.000000 0.000003 -0.000257 -0.002283 -16.663000 -2.192510 6.469440 -0.000001 -176.810000 14.951600 172.066000 -39.081100 -0.002282 -0.040193 0.064991 -0.065067 43.489000 -40.985400 0.000008 0.000006 8.538400 1.982590 -76.348300 -11.754300 -0.000006 -0.000006 -1.658230 -2.014650 -18.412600
